<svg xmlns="http://www.w3.org/2000/svg" viewBox="0 0 200 200">
  <rect width="200" height="200" rx="16" fill="#1a1f2e"/>
  <!-- Avatar silhouette -->
  <circle cx="100" cy="82" r="22" fill="none" stroke="#8892a4" stroke-width="3.5"/>
  <path d="M70 140 Q70 115 100 115 Q130 115 130 140" fill="none" stroke="#8892a4" stroke-width="3.5" stroke-linecap="round"/>
  <!-- Fire hair -->
  <path d="M82 62 Q78 40 88 30 Q85 45 92 38 Q89 50 95 42 Q93 55 100 48 Q98 58 105 50 Q103 58 110 45 Q108 55 115 42 Q112 55 118 62" fill="none" stroke="#FF4500" stroke-width="2.5" stroke-linecap="round" opacity="0.9"/>
  <path d="M86 58 Q84 42 94 35 Q92 48 98 42 Q96 52 102 46 Q100 54 108 44 Q106 52 114 58" fill="none" stroke="#FF6B35" stroke-width="1.8" stroke-linecap="round" opacity="0.7"/>
  <!-- Ember particles -->
  <circle cx="78" cy="35" r="1.5" fill="#FF4500" opacity="0.6"/>
  <circle cx="120" cy="38" r="1.2" fill="#FF6B35" opacity="0.5"/>
  <circle cx="90" cy="28" r="1" fill="#FFB347" opacity="0.4"/>
</svg>
