<svg xmlns="http://www.w3.org/2000/svg" viewBox="0 0 200 200">
  <rect width="200" height="200" rx="16" fill="#1a1f2e"/>
  <!-- Rainbow arcs behind avatar -->
  <path d="M30 160 Q30 40 100 40 Q170 40 170 160" fill="none" stroke="#ef4444" stroke-width="3" opacity="0.3"/>
  <path d="M38 160 Q38 50 100 50 Q162 50 162 160" fill="none" stroke="#f97316" stroke-width="3" opacity="0.3"/>
  <path d="M46 160 Q46 60 100 60 Q154 60 154 160" fill="none" stroke="#eab308" stroke-width="3" opacity="0.3"/>
  <path d="M54 160 Q54 70 100 70 Q146 70 146 160" fill="none" stroke="#22c55e" stroke-width="3" opacity="0.25"/>
  <path d="M62 160 Q62 80 100 80 Q138 80 138 160" fill="none" stroke="#3b82f6" stroke-width="3" opacity="0.2"/>
  <!-- Avatar -->
  <circle cx="100" cy="90" r="22" fill="none" stroke="#8892a4" stroke-width="3.5"/>
  <path d="M70 148 Q70 123 100 123 Q130 123 130 148" fill="none" stroke="#8892a4" stroke-width="3.5" stroke-linecap="round"/>
  <!-- Sparkles -->
  <circle cx="55" cy="45" r="1.5" fill="#f97316" opacity="0.5"/>
  <circle cx="145" cy="48" r="1.2" fill="#3b82f6" opacity="0.4"/>
</svg>
