<svg xmlns="http://www.w3.org/2000/svg" viewBox="0 0 200 200">
  <rect width="200" height="200" rx="16" fill="#1a1f2e"/>
  <!-- Avatar -->
  <circle cx="100" cy="85" r="22" fill="none" stroke="#8892a4" stroke-width="3.5"/>
  <path d="M70 143 Q70 118 100 118 Q130 118 130 143" fill="none" stroke="#8892a4" stroke-width="3.5" stroke-linecap="round"/>
  <!-- Flower petals scattered -->
  <g opacity="0.7">
    <circle cx="50" cy="50" r="4" fill="#f9a8d4" opacity="0.6"/>
    <circle cx="46" cy="50" r="3" fill="#fbcfe8" opacity="0.4"/>
    <circle cx="54" cy="50" r="3" fill="#fbcfe8" opacity="0.4"/>
  </g>
  <g opacity="0.5">
    <circle cx="155" cy="65" r="3.5" fill="#86efac" opacity="0.5"/>
    <circle cx="151" cy="65" r="2.5" fill="#bbf7d0" opacity="0.3"/>
    <circle cx="159" cy="65" r="2.5" fill="#bbf7d0" opacity="0.3"/>
  </g>
  <g opacity="0.6">
    <circle cx="45" cy="140" r="3" fill="#fde68a" opacity="0.5"/>
    <circle cx="42" cy="140" r="2" fill="#fef3c7" opacity="0.3"/>
  </g>
  <g opacity="0.5">
    <circle cx="160" cy="145" r="3.5" fill="#f9a8d4" opacity="0.4"/>
    <circle cx="156" cy="145" r="2.5" fill="#fbcfe8" opacity="0.3"/>
  </g>
  <!-- Leaves -->
  <ellipse cx="38" cy="95" rx="5" ry="2.5" fill="#86efac" opacity="0.4" transform="rotate(-30 38 95)"/>
  <ellipse cx="162" cy="110" rx="4" ry="2" fill="#86efac" opacity="0.35" transform="rotate(20 162 110)"/>
</svg>
